<svg width="32" height="32" viewBox="0 0 32 32" fill="none" xmlns="http://www.w3.org/2000/svg">
<path d="M14.5804 10.3413L19.518 12.4909L21.6515 17.4124L18.3938 23.9278C17.7663 25.1829 16.6403 26.1165 15.2907 26.5007L3.67942 29.8063C3.25947 29.9259 2.80772 29.8086 2.49898 29.4999C2.1904 29.1913 2.07306 28.7398 2.19233 28.32L5.49281 16.7039C5.87656 15.3533 6.81052 14.2263 8.06637 13.5983L14.5804 10.3413Z" fill="#D3D3D3"/>
<path d="M18.1215 2.56497C18.9025 1.78392 20.1688 1.78392 20.9499 2.56497L29.4352 11.0503C30.2162 11.8313 30.2162 13.0976 29.4352 13.8787L25.8996 17.4142L18.9975 12.9176L14.5859 6.10051L18.1215 2.56497Z" fill="#433B6B"/>
<path d="M14.5857 6.10052L25.8994 17.4142C24.7278 18.5858 22.8284 18.5858 21.6568 17.4142L14.5857 10.3432C13.4141 9.17159 13.4141 7.2721 14.5857 6.10052Z" fill="#FFB02E"/>
<path d="M11.1703 22.2432C12.2854 22.7759 13.6615 22.5804 14.5851 21.6568C15.7567 20.4852 15.7567 18.5857 14.5851 17.4141C13.4135 16.2426 11.514 16.2426 10.3424 17.4141C9.41879 18.3378 9.22333 19.7139 9.75607 20.829L2.43547 28.1496C2.04495 28.5401 2.04495 29.1733 2.43547 29.5638C2.826 29.9544 3.45916 29.9544 3.84968 29.5638L11.1703 22.2432Z" fill="#635994"/>
</svg>
