<svg width="32" height="32" viewBox="0 0 32 32" fill="none" xmlns="http://www.w3.org/2000/svg">
<path d="M16 30C23.732 30 30 23.732 30 16C30 8.26801 23.732 2 16 2C8.26801 2 2 8.26801 2 16C2 23.732 8.26801 30 16 30Z" fill="url(#paint0_radial_4_3704)"/>
<path d="M16 30C23.732 30 30 23.732 30 16C30 8.26801 23.732 2 16 2C8.26801 2 2 8.26801 2 16C2 23.732 8.26801 30 16 30Z" fill="url(#paint1_radial_4_3704)"/>
<path d="M16 30C23.732 30 30 23.732 30 16C30 8.26801 23.732 2 16 2C8.26801 2 2 8.26801 2 16C2 23.732 8.26801 30 16 30Z" fill="url(#paint2_radial_4_3704)"/>
<g filter="url(#filter0_f_4_3704)">
<path d="M13.085 5.04416C12.9896 4.95742 12.9287 4.83666 12.9336 4.69881C12.9435 4.42074 12.7151 4.19232 12.437 4.19232H10.6991C10.2908 4.19232 9.89207 4.02107 9.60527 3.71582C7.55959 4.75901 5.80686 6.29415 4.50195 8.16482H7.09401C8.12686 8.16482 8.96109 8.99905 8.96109 10.0319V10.9952C8.96109 11.7301 9.24909 12.4452 9.75558 12.9815L10.6891 13.9647C10.9076 14.1931 11.0268 14.501 11.0268 14.8188V15.2855C11.0268 15.792 11.3446 16.2389 11.8213 16.3978C12.8031 16.7339 13.7891 17.055 14.775 17.3761C15.4461 17.5946 16.1171 17.8132 16.7869 18.0364C16.8664 18.0762 16.9557 18.096 17.0451 18.096H18.3958C18.6739 18.096 18.8923 18.3145 18.8923 18.5926V18.7118C18.8923 18.9302 18.7136 19.0991 18.505 19.0991C18.1674 19.0991 17.8992 19.3672 17.8992 19.7049V21.7408C17.8992 22.4658 18.4951 23.0616 19.2201 23.0616C19.5875 23.0616 19.8855 23.3596 19.8855 23.727V27.3519C19.8855 27.7293 20.1834 28.0273 20.5608 28.0273C20.7594 28.0273 20.9481 27.9379 21.0772 27.7889L25.5661 22.3963C25.735 22.1877 25.8343 21.9196 25.8343 21.6415V21.2542C25.8343 20.5987 25.3079 20.0723 24.6624 20.0723H24.4241C24.1062 20.0723 23.848 19.8141 23.848 19.4963V18.9799C23.848 18.4337 23.5402 17.9371 23.0535 17.6888L22.5669 17.4505C22.1001 17.2221 21.5936 17.1029 21.0772 17.1029H18.4752C18.1475 17.1029 17.8893 16.8347 17.8893 16.5169C17.8893 16.2985 17.7105 16.1098 17.4821 16.1098H17.3133C17.0948 16.1098 16.9061 15.931 16.9061 15.7026V15.6132C16.9061 15.3351 16.6876 15.1166 16.4095 15.1166C16.1315 15.1166 15.913 15.3351 15.913 15.6132V15.7026C15.913 15.9807 15.6634 16.1297 15.3853 16.1297H14.7907C14.314 16.1098 13.9267 15.7225 13.9267 15.2458V14.3818C13.9267 13.6866 14.4829 13.1304 15.1781 13.1304H16.1017C16.5486 13.1304 16.9061 13.488 16.9061 13.9349C16.9061 14.0342 16.9855 14.1236 17.0948 14.1236H17.3232C17.641 14.1236 17.8992 13.8753 17.8992 13.5575C17.8992 13.2794 17.1742 13.0113 17.3232 12.7729L18.2257 10.7461L13.085 10.6367V5.04416Z" fill="url(#paint3_linear_4_3704)"/>
</g>
<g filter="url(#filter1_ii_4_3704)">
<path fill-rule="evenodd" clip-rule="evenodd" d="M4.50977 8H7.11977C8.15977 8 8.99977 8.84 8.99977 9.88V10.85C8.99977 11.59 9.28977 12.31 9.79977 12.85L10.7398 13.84C10.9598 14.07 11.0798 14.38 11.0798 14.7V15.17C11.0798 15.68 11.3998 16.13 11.8798 16.29C13.5412 16.8586 15.2143 17.3848 16.8798 17.9399C16.9598 17.9799 17.0498 17.9999 17.1398 17.9999H18.4998C18.7798 17.9999 18.9998 18.2199 18.9998 18.4999V18.6199C18.9998 18.8399 18.8198 19.0099 18.6098 19.0099C18.2698 19.0099 17.9998 19.2799 17.9998 19.6199V21.6699C17.9998 22.3999 18.5998 22.9999 19.3298 22.9999C19.6998 22.9999 19.9998 23.2999 19.9998 23.6699V27.3199C19.9998 27.6999 20.2998 27.9999 20.6798 27.9999C20.8798 27.9999 21.0698 27.9099 21.1998 27.7599L25.7198 22.3299C25.8898 22.1199 25.9898 21.8499 25.9898 21.5699V21.1799C25.9898 20.5199 25.4598 19.9899 24.8098 19.9899H24.5698C24.2498 19.9899 23.9898 19.7299 23.9898 19.4099V18.8899C23.9898 18.3399 23.6798 17.8399 23.1898 17.5899L22.6998 17.3499C22.2298 17.1199 21.7198 16.9999 21.1998 16.9999H18.5798C18.2498 16.9999 17.9898 16.7299 17.9898 16.4099C17.9898 16.1899 17.8098 15.9999 17.5798 15.9999H17.4098C17.1898 15.9999 16.9998 15.8199 16.9998 15.5899V15.4999C16.9998 15.2199 16.7798 14.9999 16.4998 14.9999C16.2198 14.9999 15.9998 15.2199 15.9998 15.4999V15.5899C15.9998 15.8699 15.7485 16.02 15.4685 16.02H14.8698C14.3898 16 13.9998 15.61 13.9998 15.13V14.26C13.9998 13.56 14.5598 13 15.2598 13H16.1898C16.6398 13 16.9998 13.36 16.9998 13.81C16.9998 13.91 17.0798 14 17.1898 14H17.4198C17.7398 14 17.9998 13.75 17.9998 13.43C17.9998 13.15 18.0698 12.88 18.2198 12.64L20.8598 8.24C20.9398 8.09 21.1098 8 21.2798 8H22.4998C22.7798 8 22.9998 7.78 22.9998 7.5C22.9998 7.22 22.7798 7 22.4998 7H21.2098C21.0798 7 20.9498 6.95 20.8598 6.85L20.2698 6.26C20.0898 6.09 20.0098 5.85 19.9998 5.61C19.9898 5.27 19.7098 5 19.3698 5H19.1898C19.0698 5 18.9598 4.95 18.8798 4.87L18.7698 4.76C18.4798 4.48 18.6698 4 19.0698 4H20.5098C20.8798 4 21.2498 4.13 21.5398 4.36L25.3698 7.42C25.8298 7.79 26.3998 8 26.9998 8L27.4919 8.00212C25.9403 5.77681 23.7589 4.02332 21.2061 3H15.9098C15.3498 3 14.8398 3.31 14.5898 3.81L14.1298 4.72C14.0498 4.89 13.8798 5 13.6898 5H13.5198C13.2498 5 12.9898 4.79 12.9998 4.51C13.0098 4.23 12.7798 4 12.4998 4H10.7498C10.3387 4 9.93719 3.82757 9.64841 3.5202C7.58857 4.57062 5.82371 6.11638 4.50977 8ZM18.9998 7.5C18.9998 7.78 18.7798 8 18.4998 8C18.2198 8 17.9998 8.22 17.9998 8.5C17.9998 8.78 17.7798 9 17.4998 9C17.2198 9 16.9998 8.78 16.9998 8.5C16.9998 8.22 16.7798 8 16.4998 8H15.4998C15.2198 8 14.9998 7.78 14.9998 7.5C14.9998 7.22 15.2198 7 15.4998 7H16.4998C16.7798 7 16.9998 6.78 16.9998 6.5C16.9998 6.22 17.2198 6 17.4998 6C17.7798 6 17.9998 6.22 17.9998 6.5C17.9998 6.78 18.2198 7 18.4998 7C18.7798 7 18.9998 7.22 18.9998 7.5Z" fill="url(#paint4_radial_4_3704)"/>
<path fill-rule="evenodd" clip-rule="evenodd" d="M4.50977 8H7.11977C8.15977 8 8.99977 8.84 8.99977 9.88V10.85C8.99977 11.59 9.28977 12.31 9.79977 12.85L10.7398 13.84C10.9598 14.07 11.0798 14.38 11.0798 14.7V15.17C11.0798 15.68 11.3998 16.13 11.8798 16.29C13.5412 16.8586 15.2143 17.3848 16.8798 17.9399C16.9598 17.9799 17.0498 17.9999 17.1398 17.9999H18.4998C18.7798 17.9999 18.9998 18.2199 18.9998 18.4999V18.6199C18.9998 18.8399 18.8198 19.0099 18.6098 19.0099C18.2698 19.0099 17.9998 19.2799 17.9998 19.6199V21.6699C17.9998 22.3999 18.5998 22.9999 19.3298 22.9999C19.6998 22.9999 19.9998 23.2999 19.9998 23.6699V27.3199C19.9998 27.6999 20.2998 27.9999 20.6798 27.9999C20.8798 27.9999 21.0698 27.9099 21.1998 27.7599L25.7198 22.3299C25.8898 22.1199 25.9898 21.8499 25.9898 21.5699V21.1799C25.9898 20.5199 25.4598 19.9899 24.8098 19.9899H24.5698C24.2498 19.9899 23.9898 19.7299 23.9898 19.4099V18.8899C23.9898 18.3399 23.6798 17.8399 23.1898 17.5899L22.6998 17.3499C22.2298 17.1199 21.7198 16.9999 21.1998 16.9999H18.5798C18.2498 16.9999 17.9898 16.7299 17.9898 16.4099C17.9898 16.1899 17.8098 15.9999 17.5798 15.9999H17.4098C17.1898 15.9999 16.9998 15.8199 16.9998 15.5899V15.4999C16.9998 15.2199 16.7798 14.9999 16.4998 14.9999C16.2198 14.9999 15.9998 15.2199 15.9998 15.4999V15.5899C15.9998 15.8699 15.7485 16.02 15.4685 16.02H14.8698C14.3898 16 13.9998 15.61 13.9998 15.13V14.26C13.9998 13.56 14.5598 13 15.2598 13H16.1898C16.6398 13 16.9998 13.36 16.9998 13.81C16.9998 13.91 17.0798 14 17.1898 14H17.4198C17.7398 14 17.9998 13.75 17.9998 13.43C17.9998 13.15 18.0698 12.88 18.2198 12.64L20.8598 8.24C20.9398 8.09 21.1098 8 21.2798 8H22.4998C22.7798 8 22.9998 7.78 22.9998 7.5C22.9998 7.22 22.7798 7 22.4998 7H21.2098C21.0798 7 20.9498 6.95 20.8598 6.85L20.2698 6.26C20.0898 6.09 20.0098 5.85 19.9998 5.61C19.9898 5.27 19.7098 5 19.3698 5H19.1898C19.0698 5 18.9598 4.95 18.8798 4.87L18.7698 4.76C18.4798 4.48 18.6698 4 19.0698 4H20.5098C20.8798 4 21.2498 4.13 21.5398 4.36L25.3698 7.42C25.8298 7.79 26.3998 8 26.9998 8L27.4919 8.00212C25.9403 5.77681 23.7589 4.02332 21.2061 3H15.9098C15.3498 3 14.8398 3.31 14.5898 3.81L14.1298 4.72C14.0498 4.89 13.8798 5 13.6898 5H13.5198C13.2498 5 12.9898 4.79 12.9998 4.51C13.0098 4.23 12.7798 4 12.4998 4H10.7498C10.3387 4 9.93719 3.82757 9.64841 3.5202C7.58857 4.57062 5.82371 6.11638 4.50977 8ZM18.9998 7.5C18.9998 7.78 18.7798 8 18.4998 8C18.2198 8 17.9998 8.22 17.9998 8.5C17.9998 8.78 17.7798 9 17.4998 9C17.2198 9 16.9998 8.78 16.9998 8.5C16.9998 8.22 16.7798 8 16.4998 8H15.4998C15.2198 8 14.9998 7.78 14.9998 7.5C14.9998 7.22 15.2198 7 15.4998 7H16.4998C16.7798 7 16.9998 6.78 16.9998 6.5C16.9998 6.22 17.2198 6 17.4998 6C17.7798 6 17.9998 6.22 17.9998 6.5C17.9998 6.78 18.2198 7 18.4998 7C18.7798 7 18.9998 7.22 18.9998 7.5Z" fill="url(#paint5_linear_4_3704)"/>
</g>
<path fill-rule="evenodd" clip-rule="evenodd" d="M4.50977 8H7.11977C8.15977 8 8.99977 8.84 8.99977 9.88V10.85C8.99977 11.59 9.28977 12.31 9.79977 12.85L10.7398 13.84C10.9598 14.07 11.0798 14.38 11.0798 14.7V15.17C11.0798 15.68 11.3998 16.13 11.8798 16.29C13.5412 16.8586 15.2143 17.3848 16.8798 17.9399C16.9598 17.9799 17.0498 17.9999 17.1398 17.9999H18.4998C18.7798 17.9999 18.9998 18.2199 18.9998 18.4999V18.6199C18.9998 18.8399 18.8198 19.0099 18.6098 19.0099C18.2698 19.0099 17.9998 19.2799 17.9998 19.6199V21.6699C17.9998 22.3999 18.5998 22.9999 19.3298 22.9999C19.6998 22.9999 19.9998 23.2999 19.9998 23.6699V27.3199C19.9998 27.6999 20.2998 27.9999 20.6798 27.9999C20.8798 27.9999 21.0698 27.9099 21.1998 27.7599L25.7198 22.3299C25.8898 22.1199 25.9898 21.8499 25.9898 21.5699V21.1799C25.9898 20.5199 25.4598 19.9899 24.8098 19.9899H24.5698C24.2498 19.9899 23.9898 19.7299 23.9898 19.4099V18.8899C23.9898 18.3399 23.6798 17.8399 23.1898 17.5899L22.6998 17.3499C22.2298 17.1199 21.7198 16.9999 21.1998 16.9999H18.5798C18.2498 16.9999 17.9898 16.7299 17.9898 16.4099C17.9898 16.1899 17.8098 15.9999 17.5798 15.9999H17.4098C17.1898 15.9999 16.9998 15.8199 16.9998 15.5899V15.4999C16.9998 15.2199 16.7798 14.9999 16.4998 14.9999C16.2198 14.9999 15.9998 15.2199 15.9998 15.4999V15.5899C15.9998 15.8699 15.7485 16.02 15.4685 16.02H14.8698C14.3898 16 13.9998 15.61 13.9998 15.13V14.26C13.9998 13.56 14.5598 13 15.2598 13H16.1898C16.6398 13 16.9998 13.36 16.9998 13.81C16.9998 13.91 17.0798 14 17.1898 14H17.4198C17.7398 14 17.9998 13.75 17.9998 13.43C17.9998 13.15 18.0698 12.88 18.2198 12.64L20.8598 8.24C20.9398 8.09 21.1098 8 21.2798 8H22.4998C22.7798 8 22.9998 7.78 22.9998 7.5C22.9998 7.22 22.7798 7 22.4998 7H21.2098C21.0798 7 20.9498 6.95 20.8598 6.85L20.2698 6.26C20.0898 6.09 20.0098 5.85 19.9998 5.61C19.9898 5.27 19.7098 5 19.3698 5H19.1898C19.0698 5 18.9598 4.95 18.8798 4.87L18.7698 4.76C18.4798 4.48 18.6698 4 19.0698 4H20.5098C20.8798 4 21.2498 4.13 21.5398 4.36L25.3698 7.42C25.8298 7.79 26.3998 8 26.9998 8L27.4919 8.00212C25.9403 5.77681 23.7589 4.02332 21.2061 3H15.9098C15.3498 3 14.8398 3.31 14.5898 3.81L14.1298 4.72C14.0498 4.89 13.8798 5 13.6898 5H13.5198C13.2498 5 12.9898 4.79 12.9998 4.51C13.0098 4.23 12.7798 4 12.4998 4H10.7498C10.3387 4 9.93719 3.82757 9.64841 3.5202C7.58857 4.57062 5.82371 6.11638 4.50977 8ZM18.9998 7.5C18.9998 7.78 18.7798 8 18.4998 8C18.2198 8 17.9998 8.22 17.9998 8.5C17.9998 8.78 17.7798 9 17.4998 9C17.2198 9 16.9998 8.78 16.9998 8.5C16.9998 8.22 16.7798 8 16.4998 8H15.4998C15.2198 8 14.9998 7.78 14.9998 7.5C14.9998 7.22 15.2198 7 15.4998 7H16.4998C16.7798 7 16.9998 6.78 16.9998 6.5C16.9998 6.22 17.2198 6 17.4998 6C17.7798 6 17.9998 6.22 17.9998 6.5C17.9998 6.78 18.2198 7 18.4998 7C18.7798 7 18.9998 7.22 18.9998 7.5Z" fill="url(#paint6_linear_4_3704)"/>
<defs>
<filter id="filter0_f_4_3704" x="4.35195" y="3.56582" width="21.632" height="24.6115" filterUnits="userSpaceOnUse" color-interpolation-filters="sRGB">
<feFlood flood-opacity="0" result="BackgroundImageFix"/>
<feBlend mode="normal" in="SourceGraphic" in2="BackgroundImageFix" result="shape"/>
<feGaussianBlur stdDeviation="0.075" result="effect1_foregroundBlur_4_3704"/>
</filter>
<filter id="filter1_ii_4_3704" x="4.40977" y="2.9" width="23.1824" height="25.1999" filterUnits="userSpaceOnUse" color-interpolation-filters="sRGB">
<feFlood flood-opacity="0" result="BackgroundImageFix"/>
<feBlend mode="normal" in="SourceGraphic" in2="BackgroundImageFix" result="shape"/>
<feColorMatrix in="SourceAlpha" type="matrix" values="0 0 0 0 0 0 0 0 0 0 0 0 0 0 0 0 0 0 127 0" result="hardAlpha"/>
<feOffset dx="-0.1" dy="0.1"/>
<feGaussianBlur stdDeviation="0.05"/>
<feComposite in2="hardAlpha" operator="arithmetic" k2="-1" k3="1"/>
<feColorMatrix type="matrix" values="0 0 0 0 0.403922 0 0 0 0 0.917647 0 0 0 0 0.682353 0 0 0 1 0"/>
<feBlend mode="normal" in2="shape" result="effect1_innerShadow_4_3704"/>
<feColorMatrix in="SourceAlpha" type="matrix" values="0 0 0 0 0 0 0 0 0 0 0 0 0 0 0 0 0 0 127 0" result="hardAlpha"/>
<feOffset dx="0.1" dy="-0.1"/>
<feGaussianBlur stdDeviation="0.05"/>
<feComposite in2="hardAlpha" operator="arithmetic" k2="-1" k3="1"/>
<feColorMatrix type="matrix" values="0 0 0 0 0.239216 0 0 0 0 0.560784 0 0 0 0 0.513726 0 0 0 1 0"/>
<feBlend mode="normal" in2="effect1_innerShadow_4_3704" result="effect2_innerShadow_4_3704"/>
</filter>
<radialGradient id="paint0_radial_4_3704" cx="0" cy="0" r="1" gradientUnits="userSpaceOnUse" gradientTransform="translate(25.6533 10.4768) rotate(126.543) scale(23.7179 26.88)">
<stop stop-color="#63D8FF"/>
<stop offset="1" stop-color="#3488EF"/>
</radialGradient>
<radialGradient id="paint1_radial_4_3704" cx="0" cy="0" r="1" gradientUnits="userSpaceOnUse" gradientTransform="translate(25.7544 9.61918) rotate(137.749) scale(26.0707 34.5063)">
<stop offset="0.493554" stop-color="#465DC2" stop-opacity="0"/>
<stop offset="1" stop-color="#465DC2"/>
</radialGradient>
<radialGradient id="paint2_radial_4_3704" cx="0" cy="0" r="1" gradientUnits="userSpaceOnUse" gradientTransform="translate(16 14.0691) rotate(90) scale(16.7059 16.7059)">
<stop offset="0.868421" stop-color="#606AC7" stop-opacity="0"/>
<stop offset="1" stop-color="#606AC7"/>
</radialGradient>
<linearGradient id="paint3_linear_4_3704" x1="15.914" y1="3.19919" x2="15.914" y2="28.0273" gradientUnits="userSpaceOnUse">
<stop stop-color="#2C699B"/>
<stop offset="1" stop-color="#316CCA"/>
</linearGradient>
<radialGradient id="paint4_radial_4_3704" cx="0" cy="0" r="1" gradientUnits="userSpaceOnUse" gradientTransform="translate(25.8232 6.74198) rotate(127.798) scale(19.0091 20.2884)">
<stop offset="0.418371" stop-color="#6FFCAA"/>
<stop offset="1" stop-color="#4EBA8B"/>
</radialGradient>
<linearGradient id="paint5_linear_4_3704" x1="19.0823" y1="29.8958" x2="20.2546" y2="22.4221" gradientUnits="userSpaceOnUse">
<stop stop-color="#479786"/>
<stop offset="1" stop-color="#479786" stop-opacity="0"/>
</linearGradient>
<linearGradient id="paint6_linear_4_3704" x1="23.6247" y1="5.99999" x2="20.1247" y2="9.53124" gradientUnits="userSpaceOnUse">
<stop stop-color="#77FFB5"/>
<stop offset="1" stop-color="#77FFB5" stop-opacity="0"/>
</linearGradient>
</defs>
</svg>
