<svg width="28" height="26" viewBox="0 0 28 26" fill="none" xmlns="http://www.w3.org/2000/svg">
<path d="M2 11.5C2 10.241 2.59278 9.05542 3.6 8.3L11.6 2.3C13.0222 1.23333 14.9778 1.23333 16.4 2.3L24.4 8.3C25.4072 9.05542 26 10.241 26 11.5V20.5C26 22.7091 24.2091 24.5 22 24.5H18.7895C18.2372 24.5 17.7895 24.0523 17.7895 23.5V19.3C17.7895 18.1954 16.894 17.3 15.7895 17.3H12.2105C11.106 17.3 10.2105 18.1954 10.2105 19.3V23.5C10.2105 24.0523 9.76281 24.5 9.21053 24.5H6C3.79086 24.5 2 22.7091 2 20.5L2 11.5Z" stroke="#47516C" stroke-width="2.5"/>
<path d="M2 11.5C2 10.241 2.59278 9.05542 3.6 8.3L11.6 2.3C13.0222 1.23333 14.9778 1.23333 16.4 2.3L24.4 8.3C25.4072 9.05542 26 10.241 26 11.5V20.5C26 22.7091 24.2091 24.5 22 24.5H18.7895C18.2372 24.5 17.7895 24.0523 17.7895 23.5V19.3C17.7895 18.1954 16.894 17.3 15.7895 17.3H12.2105C11.106 17.3 10.2105 18.1954 10.2105 19.3V23.5C10.2105 24.0523 9.76281 24.5 9.21053 24.5H6C3.79086 24.5 2 22.7091 2 20.5L2 11.5Z" stroke="white" stroke-width="2.5"/>
</svg>
