<svg width="24" height="24" viewBox="0 0 24 24" fill="none" xmlns="http://www.w3.org/2000/svg">
<path d="M4.96 15.96C7.14704 15.96 8.91999 14.1871 8.91999 12C8.91999 9.81299 7.14704 8.04004 4.96 8.04004C2.77295 8.04004 1 9.81299 1 12C1 14.1871 2.77295 15.96 4.96 15.96Z" stroke="black" stroke-width="2" stroke-linecap="round" stroke-linejoin="round"/>
<path d="M19.0381 23.0001C21.2252 23.0001 22.9981 21.2271 22.9981 19.0401C22.9981 16.853 21.2252 15.0801 19.0381 15.0801C16.8511 15.0801 15.0781 16.853 15.0781 19.0401C15.0781 21.2271 16.8511 23.0001 19.0381 23.0001Z" stroke="black" stroke-width="2" stroke-linecap="round" stroke-linejoin="round"/>
<path d="M19.0381 8.91999C21.2252 8.91999 22.9981 7.14704 22.9981 4.96C22.9981 2.77295 21.2252 1 19.0381 1C16.8511 1 15.0781 2.77295 15.0781 4.96C15.0781 7.14704 16.8511 8.91999 19.0381 8.91999Z" stroke="black" stroke-width="2" stroke-linecap="round" stroke-linejoin="round"/>
<path d="M8.48047 10.2397L15.5205 6.71973M8.48047 13.7597L15.5205 17.2797L8.48047 13.7597Z" stroke="black" stroke-width="2" stroke-linecap="round" stroke-linejoin="round"/>
</svg>
