<svg width="77" height="23" viewBox="0 0 77 23" fill="none" xmlns="http://www.w3.org/2000/svg">
<path d="M10.3748 11.8306H7.36148V17.078C7.36148 17.6709 7.59552 18.0464 8.06361 18.2045C8.53169 18.3626 9.3021 18.412 10.3748 18.3527V22.3846C7.58575 22.6811 5.65492 22.4143 4.58225 21.5842C3.50959 20.7343 2.97322 19.2322 2.97322 17.078V11.8306H0.632812V7.56154H2.97322V4.74515L7.36148 3.41107V7.56154H10.3748V11.8306ZM23.1935 7.56154H27.5817V22.3846H23.1935V20.9912C22.1596 22.1968 20.7068 22.7997 18.8345 22.7997C16.9034 22.7997 15.2554 22.0486 13.8902 20.5465C12.5249 19.0247 11.8423 17.1669 11.8423 14.9731C11.8423 12.7793 12.5249 10.9313 13.8902 9.42924C15.2554 7.90739 16.9034 7.14649 18.8345 7.14649C20.7068 7.14649 22.1596 7.74931 23.1935 8.9549V7.56154ZM17.196 17.6116C17.8396 18.2638 18.6782 18.5899 19.7121 18.5899C20.7454 18.5899 21.5844 18.2638 22.2281 17.6116C22.8717 16.9594 23.1935 16.0799 23.1935 14.9731C23.1935 13.8663 22.8717 12.9868 22.2281 12.3346C21.5844 11.6823 20.7454 11.3562 19.7121 11.3562C18.6782 11.3562 17.8396 11.6823 17.196 12.3346C16.5524 12.9868 16.2306 13.8663 16.2306 14.9731C16.2306 16.0799 16.5524 16.9594 17.196 17.6116ZM36.3595 1.6323L34.0191 10.3779H30.5085L31.6787 1.6323H36.3595ZM39.2863 22.3846V0.74292H43.6745V22.3846H39.2863ZM50.923 5.4863C50.4157 6.00019 49.8013 6.2571 49.0799 6.2571C48.3578 6.2571 47.7341 6.00019 47.2076 5.4863C46.7003 4.95267 46.4469 4.3202 46.4469 3.58895C46.4469 2.8577 46.7003 2.23513 47.2076 1.72124C47.7341 1.18761 48.3578 0.920797 49.0799 0.920797C49.8013 0.920797 50.4157 1.18761 50.923 1.72124C51.4495 2.23513 51.7128 2.8577 51.7128 3.58895C51.7128 4.3202 51.4495 4.95267 50.923 5.4863ZM46.8857 22.3846V7.56154H51.274V22.3846H46.8857ZM70.8681 7.14649C72.545 7.14649 73.8907 7.70977 74.9053 8.83632C75.9193 9.94313 76.4266 11.4254 76.4266 13.2832V22.3846H72.0383V13.6686C72.0383 12.9176 71.8528 12.3247 71.4824 11.8899C71.1314 11.4551 70.6141 11.2377 69.9319 11.2377C69.2099 11.2377 68.6447 11.4847 68.2351 11.9788C67.8448 12.4729 67.65 13.1548 67.65 14.0244V22.3846H63.2618V13.6686C63.2618 12.9176 63.0763 12.3247 62.7059 11.8899C62.3549 11.4551 61.8376 11.2377 61.1554 11.2377C60.4334 11.2377 59.8682 11.4847 59.4586 11.9788C59.0683 12.4729 58.8735 13.1548 58.8735 14.0244V22.3846H54.4852V7.56154H58.8735V8.92526C59.6727 7.73941 60.9799 7.14649 62.7937 7.14649C64.4905 7.14649 65.7677 7.7987 66.6261 9.10314C67.523 7.7987 68.9373 7.14649 70.8681 7.14649Z" fill="#1A2134"/>
</svg>
