<svg width="25" height="17" viewBox="0 0 25 17" fill="none" xmlns="http://www.w3.org/2000/svg">
<path d="M10.7765 15.2587C9.67275 16.2154 8.2639 16.6937 6.55011 16.6937C4.83632 16.6937 3.42747 16.2154 2.32368 15.2587C1.21989 14.302 0.667969 13.0142 0.667969 11.3952V0.930786H4.15368V11.0862C4.15368 12.5286 4.95247 13.2497 6.55011 13.2497C8.14775 13.2497 8.94654 12.5286 8.94654 11.0862V0.930786H12.4323V11.3952C12.4323 13.0142 11.8803 14.302 10.7765 15.2587ZM18.9111 12.9848H24.8586V16.3846H14.4015V13.6471L20.2401 4.33063H14.5104V0.930786H24.7497V3.66832L18.9111 12.9848Z" fill="white"/>
</svg>
